<svg id="Layer_2" data-name="Layer 2" xmlns="http://www.w3.org/2000/svg" viewBox="0 0 161.98 241"><defs><style>.cls-1{fill:#dec691;stroke:#61432d;stroke-width:6px;}.cls-1,.cls-3{stroke-miterlimit:10;}.cls-2{fill:#61432d;}.cls-3{fill:#fff;stroke:#fff;stroke-width:0.75px;}</style></defs><title>CHC</title><path class="cls-1" d="M45.8,2.89H157a0,0,0,0,1,0,0V195.83a41.62,41.62,0,0,1-41.62,41.62H4.18a0,0,0,0,1,0,0V44.51A41.62,41.62,0,0,1,45.8,2.89Z"/><path class="cls-2" d="M60.6,179.61H55.19c-22.7,0-37.36-15.29-37.36-39V52.05c0-23.67,14.67-39,37.36-39H60.6c19.14,0,30.56,11.06,30.56,29.58V62.33h-24c0-4.69,2.83-25.24-12-25.24-9.37,0-13.36,4.47-13.36,15v88.6c0,10.48,4,15,13.36,15,3.71,0,8.38-.31,10.94-3.66,2.35-3.07.57-22.95,1-22.95h24v21C91.16,168.55,79.73,179.61,60.6,179.61Z"/><path class="cls-2" d="M98.72,230.94h5.41c22.7,0,37.36-15.29,37.36-39v-88.6c0-23.67-14.67-39-37.36-39H98.72C79.58,64.43,68.16,75.49,68.16,94v19.66h24c0-4.69-2.83-25.24,12-25.24,9.37,0,13.36,4.47,13.36,15V192c0,10.48-4,15-13.36,15-3.71,0-8.38-.31-10.94-3.66-2.35-3.07-.57-22.95-1-22.95h-24v21C68.16,219.88,79.58,230.94,98.72,230.94Z"/><rect class="cls-3" x="48.49" y="72" width="13.33" height="79" rx="6.67" ry="6.67"/><rect class="cls-3" x="96.59" y="92.55" width="13.33" height="79" rx="6.67" ry="6.67"/><rect class="cls-3" x="56.49" y="117.67" width="45" height="7"/></svg>